{"accessors" : [{"bufferView" : 0, "byteOffset" : 0, "componentType" : 5123, "count" : 331182, "type" : "SCALAR", "max" : [55192], "min" : [0]}, {"bufferView" : 1, "byteOffset" : 0, "componentType" : 5126, "count" : 55193, "type" : "VEC3", "max" : [0.33000001311302185, 0.8945000171661377, 0.21690000593662262], "min" : [-0.3314000070095062, -0.9776999950408936, -0.3052999973297119], "name" : "POSITION"}], "asset" : {"generator" : "Aspose.3D 25.3.0", "version" : "2.0"}, "buffers" : [{"uri" : "data:application/octet-stream;base64,", "byteLength" : 1324688}], "bufferViews" : [{"buffer" : 0, "byteOffset" : 0, "byteLength" : 662364, "target" : 34963}, {"buffer" : 0, "byteOffset" : 662368, "byteLength" : 662316, "byteStride" : 12, "target" : 34962}], "meshes" : [{"primitives" : [{"attributes" : {"POSITION" : 1}, "indices" : 0, "mode" : 4}], "name" : ""}], "nodes" : [{"mesh" : 0, "name" : ""}], "scene" : 0, "scenes" : [{"nodes" : [0]}]}