{"accessors" : [{"bufferView" : 0, "byteOffset" : 0, "componentType" : 5123, "count" : 332076, "type" : "SCALAR", "max" : [55337], "min" : [0]}, {"bufferView" : 1, "byteOffset" : 0, "componentType" : 5126, "count" : 55338, "type" : "VEC3", "max" : [0.2833999991416931, 0.8787000179290771, 0.28139999508857727], "min" : [-0.263700008392334, -0.9692999720573425, -0.3303999900817871], "name" : "POSITION"}], "asset" : {"generator" : "Aspose.3D 25.3.0", "version" : "2.0"}, "buffers" : [{"uri" : "data:application/octet-stream;base64,", "byteLength" : 1328216}], "bufferViews" : [{"buffer" : 0, "byteOffset" : 0, "byteLength" : 664152, "target" : 34963}, {"buffer" : 0, "byteOffset" : 664156, "byteLength" : 664056, "byteStride" : 12, "target" : 34962}], "meshes" : [{"primitives" : [{"attributes" : {"POSITION" : 1}, "indices" : 0, "mode" : 4}], "name" : ""}], "nodes" : [{"mesh" : 0, "name" : ""}], "scene" : 0, "scenes" : [{"nodes" : [0]}]}