{"accessors" : [{"bufferView" : 0, "byteOffset" : 0, "componentType" : 5123, "count" : 342990, "type" : "SCALAR", "max" : [57160], "min" : [0]}, {"bufferView" : 1, "byteOffset" : 0, "componentType" : 5126, "count" : 57161, "type" : "VEC3", "max" : [0.2775000035762787, 0.900600016117096, 0.39489999413490295], "min" : [-0.2529999911785126, -0.9140999913215637, -0.296999990940094], "name" : "POSITION"}], "asset" : {"generator" : "Aspose.3D 25.3.0", "version" : "2.0"}, "buffers" : [{"uri" : "data:application/octet-stream;base64,", "byteLength" : 1371920}], "bufferViews" : [{"buffer" : 0, "byteOffset" : 0, "byteLength" : 685980, "target" : 34963}, {"buffer" : 0, "byteOffset" : 685984, "byteLength" : 685932, "byteStride" : 12, "target" : 34962}], "meshes" : [{"primitives" : [{"attributes" : {"POSITION" : 1}, "indices" : 0, "mode" : 4}], "name" : ""}], "nodes" : [{"mesh" : 0, "name" : ""}], "scene" : 0, "scenes" : [{"nodes" : [0]}]}